<svg width="316" height="83" viewBox="0 0 316 83" fill="none" xmlns="http://www.w3.org/2000/svg">
<path fill-rule="evenodd" clip-rule="evenodd" d="M238.066 22.2266C239.87 23.1979 241.421 24.5773 242.597 26.2549C243.941 28.1663 244.925 30.3076 245.499 32.5729C246.833 38.0599 246.833 43.7868 245.499 49.2738C244.923 51.5537 243.94 53.7108 242.597 55.6407C241.412 57.3265 239.837 58.7002 238.005 59.6445C236.108 60.6015 234.008 61.0847 231.883 61.0526C229.798 61.079 227.739 60.5956 225.884 59.6445C224.072 58.6856 222.515 57.3089 221.341 55.6284C220.009 53.7133 219.034 51.5728 218.464 49.3105C217.136 43.8227 217.136 38.0974 218.464 32.6096C219.039 30.3296 220.022 28.1726 221.365 26.2427C222.551 24.5547 224.126 23.1772 225.957 22.2266C227.854 21.271 229.955 20.792 232.079 20.8308C234.16 20.793 236.217 21.2726 238.066 22.2266ZM234.899 52.8243C235.77 52.2295 236.446 51.3904 236.842 50.4125C238.142 47.438 238.733 44.2021 238.568 40.96C238.735 37.714 238.144 34.4736 236.842 31.4954C236.444 30.5211 235.766 29.6863 234.895 29.0959C234.023 28.5055 232.997 28.1859 231.944 28.1772C230.892 28.1859 229.865 28.5055 228.994 29.0959C228.122 29.6863 227.445 30.5211 227.047 31.4954C225.732 34.4697 225.14 37.7131 225.32 40.96C225.152 44.2062 225.744 47.4469 227.047 50.4247C227.443 51.4013 228.12 52.2387 228.991 52.8314C229.863 53.4241 230.89 53.7455 231.944 53.7551C232.999 53.7429 234.027 53.419 234.899 52.8243Z" fill="#222222"/>
<path d="M203.246 50.6306C204.164 49.7857 205.07 48.9409 205.952 48.0838C207.689 46.3952 209.325 44.6044 210.849 42.7209C211.997 41.3247 212.93 39.7647 213.616 38.0927C214.208 36.579 214.507 34.967 214.498 33.342C214.502 31.6616 214.173 29.9971 213.531 28.4443C212.927 26.9529 212.027 25.5992 210.886 24.465C209.73 23.3297 208.361 22.4349 206.858 21.8325C205.229 21.1906 203.49 20.8705 201.74 20.8897C199.622 20.8674 197.527 21.3324 195.618 22.2488C193.782 23.1456 192.181 24.4578 190.94 26.0812C189.656 27.7983 188.784 29.7885 188.394 31.8972L195.74 33.1216C196.019 31.6713 196.737 30.3419 197.797 29.3137C198.791 28.3851 200.11 27.8839 201.47 27.9178C202.137 27.8993 202.8 28.0203 203.417 28.2729C204.037 28.528 204.597 28.912 205.058 29.3994C206.034 30.5162 206.535 31.9708 206.454 33.4521C206.451 34.6114 206.196 35.7562 205.707 36.807C205.094 38.0548 204.325 39.2192 203.417 40.2721C202.437 41.4965 201.18 42.8923 199.646 44.4596L199.252 44.8542L199.25 44.8563C198.725 45.3838 198.203 45.9071 197.675 46.4064L197.417 46.6496C196.821 47.2127 196.16 47.8381 195.434 48.5001C194.601 49.2592 193.622 50.1286 192.52 51.0714L188.724 54.4017V60.2054H215.122V53.1651H200.429C201.155 52.497 201.895 51.8363 202.627 51.1831L202.629 51.1816C202.835 50.9973 203.041 50.8136 203.246 50.6306Z" fill="#222222"/>
<path d="M263.498 50.6316C264.428 49.7867 265.334 48.9419 266.216 48.0848C267.954 46.3962 269.589 44.6054 271.113 42.7219C272.257 41.3227 273.189 39.7633 273.881 38.0936C275.077 34.962 275.046 31.4941 273.795 28.3841C273.185 26.8899 272.277 25.5359 271.126 24.4048C269.965 23.2704 268.592 22.3759 267.085 21.7723C265.452 21.1303 263.71 20.8102 261.955 20.8295C259.837 20.8054 257.742 21.2705 255.833 22.1886C254.003 23.0885 252.406 24.4003 251.168 26.021C249.883 27.738 249.012 29.7283 248.621 31.8369L255.968 33.0613C256.246 31.6111 256.965 30.2817 258.025 29.2534C259.019 28.3248 260.338 27.8236 261.698 27.8576C262.369 27.8445 263.036 27.9695 263.657 28.2249C264.274 28.4848 264.829 28.8729 265.285 29.3636C266.262 30.4754 266.764 31.9264 266.681 33.4042C266.678 34.562 266.428 35.7059 265.946 36.759C265.348 38.0017 264.604 39.1689 263.73 40.2364C262.734 41.4608 261.473 42.8566 259.947 44.4238C259.814 44.5565 259.682 44.6893 259.55 44.8217C259.025 45.349 258.504 45.8715 257.976 46.3706L257.72 46.6119C257.124 47.1757 256.462 47.8014 255.735 48.4644C254.902 49.2235 253.923 50.0928 252.833 51.0356L249.001 54.366V60.1697H275.387V53.1661H260.694L263.498 50.6316Z" fill="#222222"/>
<path d="M279.951 34.2512L277.38 27.5904L288.706 21.2725H295.33V60.2086H287.616V29.8433L279.951 34.2512Z" fill="#222222"/>
<path fill-rule="evenodd" clip-rule="evenodd" d="M315.584 14.1052C315.838 15.6353 315.977 17.1824 316 18.7334V18.7348C316 19.4444 316 20.1173 315.951 20.668V63.2529C315.928 64.8039 315.789 66.351 315.535 67.8811C315.247 69.5844 314.706 71.2351 313.931 72.7787C312.333 75.891 309.797 78.4223 306.682 80.015C305.138 80.7881 303.487 81.3286 301.785 81.6189C300.25 81.8679 298.699 82.0071 297.144 82.0353H186.36C184.801 82.0064 183.246 81.8673 181.707 81.6189C180.006 81.3417 178.355 80.8135 176.809 80.0517C173.692 78.4643 171.152 75.9372 169.549 72.8277C168.774 71.2836 168.234 69.633 167.945 67.9301C167.69 66.3999 167.551 64.8528 167.528 63.3018V18.7824C167.551 17.2314 167.69 15.6843 167.945 14.1541C168.233 12.4509 168.773 10.8002 169.549 9.25652C171.147 6.1443 173.682 3.61297 176.797 2.02027C178.342 1.24713 179.992 0.706628 181.695 0.416298C183.23 0.167302 184.78 0.0281821 186.335 0H297.169C298.727 0.028881 300.282 0.167994 301.821 0.416298C303.522 0.693598 305.173 1.22176 306.719 1.98354C309.837 3.57097 312.376 6.09802 313.98 9.20754C314.754 10.7517 315.294 12.4022 315.584 14.1052ZM309.315 18.9416C309.307 17.7111 309.205 16.4831 309.009 15.2684C308.827 14.2213 308.493 13.2065 308.017 12.2563C307.065 10.4084 305.557 8.90542 303.707 7.95864C302.755 7.49021 301.74 7.16037 300.695 6.97912C299.479 6.78934 298.252 6.68705 297.022 6.67302H186.519C185.288 6.6911 184.061 6.79749 182.846 6.99136C181.797 7.16135 180.781 7.49172 179.834 7.97089C177.979 8.9215 176.467 10.4285 175.511 12.2808C175.045 13.2252 174.715 14.2311 174.532 15.2684C174.342 16.4839 174.24 17.7114 174.226 18.9416V63.0814C174.234 64.3119 174.336 65.5399 174.532 66.7547C174.714 67.8017 175.048 68.8165 175.524 69.7667C176.472 71.6171 177.981 73.121 179.834 74.0644C180.786 74.5328 181.8 74.8626 182.846 75.0439C184.061 75.2337 185.289 75.336 186.519 75.35H297.022C298.252 75.3423 299.48 75.24 300.695 75.0439C301.743 74.8739 302.759 74.5435 303.707 74.0644C305.562 73.1138 307.073 71.6068 308.029 69.7544C308.496 68.8101 308.825 67.8042 309.009 66.7669C309.198 65.5514 309.301 64.3238 309.315 63.0937V18.9416Z" fill="#222222"/>
<path d="M38.8163 20.894C38.1618 20.5157 37.4173 20.3211 36.6613 20.3308C35.9014 20.3195 35.1525 20.5142 34.4942 20.894C33.8518 21.2509 33.3185 21.7757 32.9514 22.4123C32.5712 23.0794 32.3768 23.8362 32.3882 24.604C32.3769 25.364 32.5715 26.1128 32.9514 26.7712C33.3379 27.4107 33.8928 27.9316 34.5554 28.2772C35.2137 28.657 35.9626 28.8516 36.7225 28.8404C37.4786 28.8513 38.2234 28.6566 38.8775 28.2772C39.5226 27.9196 40.0596 27.3952 40.4325 26.7589C40.8086 26.0996 40.9991 25.3506 40.9835 24.5917C40.9992 23.825 40.8089 23.0681 40.4325 22.4C40.0426 21.7589 39.4834 21.2377 38.8163 20.894Z" fill="#222222"/>
<path fill-rule="evenodd" clip-rule="evenodd" d="M18.392 32.5874C19.8739 33.3588 21.1373 34.4917 22.0652 35.8811L22.3101 32.2079H29.1668V60.2713H22.2856L22.0774 56.1817C21.131 57.6927 19.8056 58.9296 18.2328 59.7693C16.6108 60.6399 14.7965 61.0903 12.9556 61.0794C11.1866 61.0934 9.43721 60.7084 7.83757 59.9529C6.26571 59.2014 4.86534 58.1345 3.72358 56.8184C2.52971 55.4503 1.59976 53.8728 0.980886 52.1657C0.307624 50.3101 -0.0242186 48.348 0.00137519 46.3742C-0.020682 44.3827 0.31953 42.4037 1.0054 40.5338C1.64317 38.7865 2.59785 37.1718 3.82152 35.7709C5.00683 34.427 6.45762 33.343 8.08247 32.5874C9.73295 31.8115 11.5359 31.4141 13.3597 31.4242C15.1075 31.3892 16.8367 31.7889 18.392 32.5874ZM18.3063 53.3411C19.392 52.6088 20.266 51.6038 20.8408 50.427L20.8653 50.4148C21.4893 49.1217 21.7997 47.6996 21.7713 46.264C21.796 44.8183 21.4771 43.3873 20.8408 42.0888C20.2619 40.9181 19.3885 39.9181 18.3063 39.187C17.2173 38.4696 15.9369 38.0982 14.633 38.1217C13.3293 38.099 12.0491 38.4703 10.9598 39.187C9.88399 39.9218 9.01537 40.9211 8.43755 42.0888C7.79161 43.3843 7.46815 44.8167 7.49474 46.264C7.46815 47.7114 7.79161 49.1438 8.43755 50.4393C9.0121 51.6091 9.88138 52.6092 10.9598 53.3411C12.0479 54.0592 13.3298 54.4267 14.633 54.3941C15.9364 54.4275 17.2186 54.0599 18.3063 53.3411Z" fill="#222222"/>
<path d="M40.2745 32.1814H32.8057V60.2693H40.2745V32.1814Z" fill="#222222"/>
<path d="M53.9483 33.0326C55.2176 32.215 56.6995 31.7892 58.2093 31.8082C58.7221 31.8148 59.2337 31.8598 59.7398 31.9429L60.2663 32.0654V39.6322C59.868 39.497 59.4581 39.3986 59.0419 39.3383C58.6355 39.2904 58.2267 39.2659 57.8174 39.2649C56.9297 39.2062 56.0401 39.3448 55.2123 39.6708C54.3845 39.9968 53.6393 40.5021 53.03 41.1505C51.8396 42.6652 51.2509 44.5664 51.3771 46.4889V60.2634H43.9082V32.2245H50.8016L51.071 36.461C51.6915 35.0722 52.6882 33.8847 53.9483 33.0326Z" fill="#222222"/>
<path fill-rule="evenodd" clip-rule="evenodd" d="M88.6751 35.5798C87.5284 34.2754 86.1287 33.2173 84.5611 32.4698C82.9661 31.7133 81.2205 31.3282 79.4553 31.3433C77.7565 31.3247 76.0777 31.7108 74.5577 32.4698C73.0394 33.2293 71.722 34.3369 70.713 35.7022V20.593H63.2441V60.2638H70.0641L70.2723 56.5906C71.2072 57.9707 72.4691 59.098 73.9455 59.872C75.5037 60.661 77.2315 61.0562 78.9778 61.0229C80.8006 61.0369 82.6035 60.6437 84.255 59.872C85.8957 59.1248 87.3634 58.0449 88.5649 56.7008C89.7947 55.3022 90.7539 53.6871 91.3933 51.9378C92.0795 50.0465 92.4236 48.0481 92.4095 46.0362C92.4238 44.0623 92.088 42.1014 91.4178 40.2447C90.7937 38.5364 89.8644 36.9558 88.6751 35.5798ZM83.8387 50.4196C83.2601 51.5938 82.3868 52.5979 81.3041 53.3336C80.2057 54.0288 78.9308 54.3942 77.6309 54.3866C76.3307 54.3963 75.0553 54.0307 73.9577 53.3336C72.8721 52.6029 71.9947 51.603 71.4109 50.4318C70.797 49.1256 70.4792 47.6999 70.4804 46.2566C70.4792 44.8133 70.797 43.3875 71.4109 42.0814C71.9947 40.9101 72.8721 39.9103 73.9577 39.1795C75.0543 38.4788 76.3296 38.109 77.6309 38.1143C78.932 38.1111 80.2067 38.4807 81.3041 39.1795C82.3863 39.9106 83.2598 40.9106 83.8387 42.0814C84.4527 43.3875 84.7704 44.8133 84.7692 46.2566C84.7686 47.6958 84.4509 49.1171 83.8387 50.4196Z" fill="#222222"/>
<path d="M111.066 31.4014C112.877 31.4389 114.648 31.9406 116.209 32.8584C117.785 33.8704 119.035 35.316 119.809 37.0214C120.69 39.0336 121.108 41.2176 121.033 43.4128V60.2851H113.577V44.3679C113.669 42.7261 113.198 41.1021 112.242 39.7641C111.802 39.2142 111.24 38.774 110.601 38.4785C109.958 38.1951 109.259 38.0611 108.556 38.0866C107.509 38.0645 106.475 38.3314 105.569 38.858C104.73 39.3864 104.049 40.1308 103.598 41.013C103.084 41.9765 102.827 43.0559 102.851 44.1475V60.2607H95.3818V32.1728H102.263L102.471 35.846C103.299 34.4932 104.469 33.3825 105.863 32.6258C107.465 31.782 109.256 31.3606 111.066 31.4014Z" fill="#222222"/>
<path fill-rule="evenodd" clip-rule="evenodd" d="M150.188 35.592C149.039 34.2903 147.64 33.2327 146.074 32.482C144.477 31.735 142.732 31.3543 140.968 31.3678C139.27 31.3534 137.592 31.7393 136.071 32.4943C134.553 33.2542 133.236 34.3617 132.226 35.7267V20.593H124.77V60.2638H131.651L131.859 56.5906C132.787 57.9796 134.05 59.1124 135.532 59.8842C137.084 60.6982 138.812 61.1187 140.564 61.1086C142.392 61.0923 144.194 60.6743 145.842 59.8842C147.46 59.1294 148.903 58.0451 150.078 56.7008C151.309 55.3079 152.269 53.6965 152.906 51.9501C153.602 50.0614 153.947 48.0612 153.923 46.0484C153.945 44.0739 153.609 42.1116 152.931 40.257C152.318 38.5434 151.388 36.9607 150.188 35.592ZM145.352 50.4073C144.777 51.5806 143.903 52.5815 142.817 53.3092C141.721 54.0098 140.445 54.3797 139.144 54.3744C137.844 54.3799 136.57 54.0146 135.471 53.3214C134.392 52.5895 133.523 51.5894 132.949 50.4196C132.327 49.1156 132.005 47.689 132.006 46.2443C132.005 44.7997 132.327 43.3731 132.949 42.0691C133.526 40.9014 134.395 39.9021 135.471 39.1673C136.569 38.4704 137.843 38.1009 139.144 38.102C140.445 38.0967 141.721 38.4666 142.817 39.1673C143.897 39.9013 144.77 40.9006 145.352 42.0691C145.966 43.3753 146.284 44.801 146.282 46.2443C146.282 47.6835 145.964 49.1049 145.352 50.4073Z" fill="#222222"/>
</svg>
